G04 Layer_Physical_Order=1*
G04 Layer_Color=255*
%FSLAX24Y24*%
%MOIN*%
G70*
G01*
G75*
%ADD10R,0.0250X0.0200*%
%ADD11R,0.0236X0.0394*%
%ADD12R,0.0394X0.0236*%
%ADD13C,0.0100*%
%ADD14C,0.0700*%
%ADD15R,0.0700X0.0700*%
%ADD16C,0.0512*%
D10*
X4787Y3300D02*
D03*
X5200D02*
D03*
X4787Y5000D02*
D03*
X5200D02*
D03*
X4787Y4500D02*
D03*
X5200D02*
D03*
X1100Y3300D02*
D03*
X687D02*
D03*
Y4500D02*
D03*
X1100D02*
D03*
X5200Y5800D02*
D03*
X4787D02*
D03*
X687Y2850D02*
D03*
X1100D02*
D03*
X5213Y3750D02*
D03*
X4800D02*
D03*
D11*
X3350Y5681D02*
D03*
X2350D02*
D03*
Y3319D02*
D03*
X3350D02*
D03*
D12*
X2063Y4500D02*
D03*
Y4992D02*
D03*
Y4008D02*
D03*
X3637D02*
D03*
Y4500D02*
D03*
Y4992D02*
D03*
D13*
X4679D01*
X3350Y3319D02*
X4668D01*
X1100Y4500D02*
X2063D01*
X687Y3300D02*
Y4500D01*
X3637Y4500D02*
X4687D01*
X5200Y5000D02*
Y5800D01*
Y4500D02*
Y5000D01*
X4750Y600D02*
X5100Y950D01*
X750Y600D02*
Y900D01*
X3637Y4008D02*
X4442D01*
X1258D02*
X2063D01*
X1150Y3900D02*
X1258Y4008D01*
X687Y2850D02*
Y3300D01*
X1750Y600D02*
X1800Y650D01*
X1331Y5681D02*
X2350D01*
X1100Y5450D02*
X1331Y5681D01*
X1100Y4500D02*
Y5450D01*
X5200Y2900D02*
Y3300D01*
X5100Y2800D02*
X5200Y2900D01*
Y3300D02*
Y4500D01*
X5100Y950D02*
Y2800D01*
X4700Y3750D02*
X4800D01*
X4442Y4008D02*
X4700Y3750D01*
X1100Y3300D02*
X2331D01*
X2350Y3319D01*
X2750Y600D02*
X2800Y650D01*
X2350Y2600D02*
Y3319D01*
X2800Y2000D02*
Y3500D01*
Y650D02*
Y2000D01*
X1800Y650D02*
Y2100D01*
X1100Y2850D02*
X1150Y2800D01*
Y1850D02*
Y2800D01*
Y1300D02*
Y1850D01*
X750Y900D02*
X1150Y1300D01*
X500Y2850D02*
X687D01*
X450Y2800D02*
X500Y2850D01*
X450Y2200D02*
Y2800D01*
X2063Y4992D02*
X2758D01*
X3250Y4500D01*
X3637D01*
X2350Y3319D02*
Y3600D01*
X2758Y4008D01*
Y4992D01*
X2800Y3500D02*
X2842D01*
X3350Y4008D01*
X3637D01*
X4350Y6200D02*
X4387D01*
X3350Y5681D02*
X4681D01*
X4793Y5793D01*
X4387Y6200D02*
X4793Y5793D01*
X3600Y1850D02*
X3700D01*
X3750Y600D02*
Y1800D01*
X3700Y1850D02*
X3750Y1800D01*
D14*
X1750Y600D02*
D03*
X2750D02*
D03*
X3750D02*
D03*
X750D02*
D03*
D15*
X4750D02*
D03*
D16*
X1150Y3900D02*
D03*
X2350Y2600D02*
D03*
X2800Y2000D02*
D03*
X1800Y2100D02*
D03*
X1150Y1850D02*
D03*
X450Y2200D02*
D03*
X4350Y6200D02*
D03*
X3600Y1850D02*
D03*
M02*
